# xmcd
#
# Track frame offsets:
#        150
#        17687
#        37555
#        54855
#        69407
#        89350
#        107235
#        121315
#        140962
#        155695
#        166937
#
# Disc length: 2453 seconds
#
# Revision: 8
# Processed by: cddbd v1.5.1PL2 Copyright (c) Steve Scherf et al.
# Submitted via: ExactAudioCopy v0.95b3
#
DISCID=8909930b
DTITLE=3 Doors Down - The Better Life
DYEAR=1999
DGENRE=Alternative
TTITLE0=Kryptonite
TTITLE1=Loser
TTITLE2=Duck And Run
TTITLE3=Not Enough
TTITLE4=Be Like That
TTITLE5=Life Of My Own
TTITLE6=Better Life
TTITLE7=Down Poison
TTITLE8=By My Side
TTITLE9=Smack
TTITLE10=So I Need You
EXTD=\n YEAR: 2000 ID3G:  17
EXTT0=
EXTT1=
EXTT2=
EXTT3=
EXTT4=
EXTT5=
EXTT6=
EXTT7=
EXTT8=
EXTT9=
EXTT10=
PLAYORDER=
